/* XPM */
static char * launcher_xpm[] = {
"64 64 214 2",
"  	c None",
". 	c #C2DCE3",
"+ 	c #BAD7DF",
"@ 	c #C6DEE5",
"# 	c #CDE2E8",
"$ 	c #A5C5D8",
"% 	c #93B8D0",
"& 	c #A3C3D6",
"* 	c #C4DDE4",
"= 	c #B7D5DD",
"- 	c #A4C4D7",
"; 	c #77A6C3",
"> 	c #84AEC9",
", 	c #96BAD0",
"' 	c #86B0CA",
") 	c #75A5C2",
"! 	c #C9E0E6",
"~ 	c #C2DBE3",
"{ 	c #A2C3D6",
"] 	c #7CAAC6",
"^ 	c #7DAAC6",
"/ 	c #94B9D0",
"( 	c #89B1CB",
"_ 	c #78A7C4",
": 	c #80ACC7",
"< 	c #85AFC9",
"[ 	c #7BA9C5",
"} 	c #9BBDD3",
"| 	c #BAD2E1",
"1 	c #9BBED3",
"2 	c #B7D0DF",
"3 	c #A3C3D7",
"4 	c #78A7C3",
"5 	c #9ABCD3",
"6 	c #89B2CB",
"7 	c #A2C3D7",
"8 	c #81ADC8",
"9 	c #7F98B1",
"0 	c #748FAA",
"a 	c #6A87A4",
"b 	c #6885A3",
"c 	c #6C88A5",
"d 	c #7590AB",
"e 	c #8199B2",
"f 	c #B9D1E0",
"g 	c #7FACC7",
"h 	c #98BCD2",
"i 	c #97BBD1",
"j 	c #5F7E9E",
"k 	c #587999",
"l 	c #4D6F93",
"m 	c #496C90",
"n 	c #4A6D90",
"o 	c #4B6E91",
"p 	c #4A6E91",
"q 	c #496D90",
"r 	c #4E7193",
"s 	c #5A7A9A",
"t 	c #62809F",
"u 	c #A9C7D9",
"v 	c #82ADC8",
"w 	c #9ABDD3",
"x 	c #547597",
"y 	c #4C6F92",
"z 	c #4E7093",
"A 	c #4F7193",
"B 	c #507294",
"C 	c #517394",
"D 	c #517294",
"E 	c #5E7D9C",
"F 	c #B2CDDD",
"G 	c #7EABC6",
"H 	c #96BAD1",
"I 	c #99BCD3",
"J 	c #8CA2B9",
"K 	c #4E7092",
"L 	c #4F7093",
"M 	c #496D8F",
"N 	c #466B8F",
"O 	c #496C8F",
"P 	c #4A6D91",
"Q 	c #486C90",
"R 	c #476B8F",
"S 	c #8EB5CE",
"T 	c #819AB2",
"U 	c #4D7093",
"V 	c #537596",
"W 	c #5D7D9C",
"X 	c #879EB5",
"Y 	c #5A7B9A",
"Z 	c #4F7194",
"` 	c #7E97B0",
" .	c #8AB3CC",
"..	c #91B7CF",
"+.	c #87B1CA",
"@.	c #728DA9",
"#.	c #517395",
"$.	c #527495",
"%.	c #738EA9",
"&.	c #6C89A5",
"*.	c #4D7092",
"=.	c #879FB6",
"-.	c #90B6CE",
";.	c #95BAD1",
">.	c #94BAD0",
",.	c #8FB6CE",
"'.	c #7691AC",
").	c #4B6F91",
"!.	c #61819F",
"~.	c #4F7294",
"{.	c #4D6F91",
"].	c #6885A2",
"^.	c #486C8F",
"/.	c #587899",
"(.	c #6483A1",
"_.	c #44688D",
":.	c #4C6F91",
"<.	c #466A8E",
"[.	c #8EA4BA",
"}.	c #738FAA",
"|.	c #577798",
"1.	c #6D89A6",
"2.	c #8BA2B8",
"3.	c #5D7D9D",
"4.	c #486B90",
"5.	c #476A8E",
"6.	c #567798",
"7.	c #6986A3",
"8.	c #557697",
"9.	c #537496",
"0.	c #59799A",
"a.	c #6683A1",
"b.	c #597A9A",
"c.	c #4F7293",
"d.	c #507193",
"e.	c #507293",
"f.	c #6482A1",
"g.	c #6583A1",
"h.	c #44688C",
"i.	c #45698D",
"j.	c #7B95AE",
"k.	c #4C6E92",
"l.	c #4B6D91",
"m.	c #4D6F92",
"n.	c #4F7094",
"o.	c #63819F",
"p.	c #4C6E91",
"q.	c #7B94AE",
"r.	c #7D96AF",
"s.	c #5D7C9C",
"t.	c #6A86A3",
"u.	c #6482A0",
"v.	c #5E7D9D",
"w.	c #61809F",
"x.	c #6987A4",
"y.	c #6B88A5",
"z.	c #6987A3",
"A.	c #6381A0",
"B.	c #5B7B9B",
"C.	c #527496",
"D.	c #718DA8",
"E.	c #6D8AA6",
"F.	c #839BB3",
"G.	c #8AA1B7",
"H.	c #3C6288",
"I.	c #547697",
"J.	c #7A94AE",
"K.	c #4E7194",
"L.	c #5C7B9C",
"M.	c #6A86A4",
"N.	c #527395",
"O.	c #507194",
"P.	c #486B8F",
"Q.	c #607F9E",
"R.	c #6B87A4",
"S.	c #758FAA",
"T.	c #60809F",
"U.	c #5A7B9B",
"V.	c #9DB0C4",
"W.	c #45688D",
"X.	c #45698E",
"Y.	c #91A7BB",
"Z.	c #5C7C9C",
"`.	c #456A8E",
" +	c #7B95AF",
".+	c #738EAA",
"++	c #7691AB",
"@+	c #577899",
"#+	c #5B7B9C",
"$+	c #44698D",
"%+	c #869DB5",
"&+	c #7690AB",
"*+	c #62819F",
"=+	c #7D97B0",
"-+	c #5E7E9D",
";+	c #6A88A4",
">+	c #567697",
",+	c #7892AD",
"'+	c #44698E",
")+	c #4B6F92",
"!+	c #5F7E9D",
"~+	c #486D90",
"{+	c #4A6C8F",
"]+	c #6886A3",
"^+	c #89A0B7",
"/+	c #41668B",
"(+	c #9EB2C4",
"_+	c #99ADC1",
":+	c #547596",
"<+	c #738FA9",
"[+	c #4B6D90",
"}+	c #7D96B0",
"|+	c #6582A1",
"1+	c #8BA1B9",
"                                                                                                                                ",
"                                                                                                                                ",
"                                                                                                                                ",
"                                                                                                                                ",
"                                                                                                                                ",
"                                                                                                                                ",
"                                                                                                                                ",
"                                                                                                                                ",
"                                                                                                              . +               ",
"                                                                                                            @       #           ",
"                                                                                            $ % &         *           =         ",
"                                                                                        - ; > , ' ) -       !       ~           ",
"                                                                                      { ]           ^ /                         ",
"                                                                                    ( _               : < : ^                   ",
"                                                                                  [ }                 | 1 2 3 4 5               ",
"                                                                                6 7                             8               ",
"                                              9 0 a b c d e                   f g                               h i             ",
"                                        j k l m n o o p q m r s t             u v                                 w             ",
"                                    x y z A B C C C D C C D B r z o E         F G                               H I             ",
"                                J y K B B B L M N O P Q R n A B B C o m         >                               S               ",
"                              T q z B A U V W X           9 Y V U A D Z z `     1  .                          ..+.              ",
"                            @.m Z #.n $.%.                      &.B *.D *.A =.    i -.;.;.;.;.;.;.;.>./ / >...,.                ",
"                          '.).B C R !.                              ~.{.C A m                                           ].^.&.  ",
"                          /.A B o (.                                  B *.B A *.                                  9 #._.:.<.[.  ",
"                        }.P B A |.                                      #.z B ).1.                          2.3.4.5.A #.D R     ",
"                        6.z #.q                                           Z B Z 6.      a 7.7.                8.z C B B A 9.    ",
"                  0.A B Z B o a.                                          b.~.B B $.B B ~.A c.d.e.B f.          q B B B y g.    ",
"              t h.U B B B C i.                                            j.k.B B B B B B B B B B y z         $.z B B B P d     ",
"            l.n #.B z m.n.o o.                                              o B B B *.*.A c.Z U o #.        #.:.C A B r p.q.    ",
"        r.*.A D r n s.7.t.u.                                                v.*.y y w.a x.y.a z.A.        B.y D *.C.D.E.o       ",
"        n A B z B F.                                                        G.H.B.                        r B B I.      2.      ",
"      n c.B *.r                                                               0                         J.o B K.L.              ",
"    M.O C *.N.                                                                                            O.B Z 6.              ",
"    P.#.r #.                                                                                              Q.z B P 0             ",
"  R.r B o S.                                                                                                m C U s             ",
"  Q.Z ~.I.                                                                                                  T.y D ^.            ",
"  s Z A U.                                                                                                  V.W.#.X.Y.          ",
"  8.B Z Z.                                                                                                    `.#.R  +          ",
"  N.B A 3.                                                                                                    ^.C m .+          ",
"  9.B K.Z.                                                                                                    5.#.^.++          ",
"  @+B A #+                                                                                                    $+#.<.%+          ",
"  v.Z A /.                                                                                                  &+Q #.`.            ",
"  *+Z B *.=+                                                                                                z B A #.            ",
"    o B *.-+                                                                                              ;+U B o E.            ",
"    O.A C <.9                                                                                             >+A B U               ",
"      <.B #.<.,+                                                                                        v.:.B z U.              ",
"      J.'+#.B )+!+                                                                                  0 I.y B D R                 ",
"        c ~+B B z {+]+                                                                          ^+C.y Z B D /+(+                ",
"          s.m.A B #.p $+q B #.#.#.#.#.#.#.#.#.#.#.#.#.#.#.#.#.#.#.#.#.#.#.#.#.#.#.#.#.#.#.#.*.<.<.A B B z ^._+                  ",
"            u.:+n z C #.B A r r r r r r r r r r r r r r r r r r r r r r r r r r r r r r r r A #.#.B p.:.s                       ",
"                <+6.R m y z r r r r r r r r r r r r r r r r r r r r r r r r r r r r r r r r z [+R o g.}+                        ",
"                       +|+Z.B.B.B.B.B.B.B.B.B.B.B.B.B.B.B.B.B.B.B.B.B.B.B.B.B.B.B.B.B.B.B.U.-+E.1+                              ",
"                                                                                                                                ",
"                                                                                                                                ",
"                                                                                                                                ",
"                                                                                                                                ",
"                                                                                                                                ",
"                                                                                                                                ",
"                                                                                                                                ",
"                                                                                                                                ",
"                                                                                                                                ",
"                                                                                                                                ",
"                                                                                                                                ",
"                                                                                                                                "};
